<svg width="15" height="15" viewBox="0 0 15 15" fill="none" xmlns="http://www.w3.org/2000/svg">
<path d="M7.5 5.85937C7.82448 5.85937 8.14168 5.9556 8.41148 6.13587C8.68128 6.31614 8.89156 6.57237 9.01574 6.87216C9.13991 7.17194 9.1724 7.50182 9.1091 7.82007C9.0458 8.13832 8.88954 8.43065 8.6601 8.6601C8.43065 8.88954 8.13832 9.0458 7.82007 9.1091C7.50182 9.1724 7.17195 9.13991 6.87216 9.01574C6.57238 8.89156 6.31614 8.68128 6.13587 8.41148C5.9556 8.14168 5.85938 7.82448 5.85938 7.5C5.86092 7.06535 6.03427 6.64895 6.34161 6.34161C6.64895 6.03426 7.06535 5.86092 7.5 5.85937ZM5.85938 12.1875C5.85937 12.512 5.9556 12.8292 6.13587 13.099C6.31614 13.3688 6.57238 13.5791 6.87216 13.7032C7.17195 13.8274 7.50182 13.8599 7.82007 13.7966C8.13832 13.7333 8.43065 13.577 8.6601 13.3476C8.88954 13.1182 9.0458 12.8258 9.1091 12.5076C9.1724 12.1893 9.13991 11.8594 9.01574 11.5597C8.89156 11.2599 8.68128 11.0036 8.41148 10.8234C8.14168 10.6431 7.82448 10.5469 7.5 10.5469C7.06535 10.5484 6.64895 10.7218 6.34161 11.0291C6.03427 11.3365 5.86092 11.7529 5.85938 12.1875ZM5.85938 2.8125C5.85938 3.13698 5.9556 3.45418 6.13587 3.72398C6.31614 3.99378 6.57238 4.20406 6.87216 4.32824C7.17195 4.45241 7.50182 4.4849 7.82007 4.4216C8.13832 4.3583 8.43065 4.20204 8.6601 3.9726C8.88954 3.74315 9.0458 3.45082 9.1091 3.13257C9.1724 2.81432 9.13991 2.48444 9.01574 2.18466C8.89156 1.88487 8.68128 1.62864 8.41148 1.44837C8.14168 1.2681 7.82448 1.17187 7.5 1.17187C7.06535 1.17342 6.64895 1.34676 6.34161 1.65411C6.03427 1.96145 5.86092 2.37785 5.85938 2.8125Z" fill="white"/>
</svg>
