<svg width="15" height="15" viewBox="0 0 15 15" fill="none" xmlns="http://www.w3.org/2000/svg">
<path d="M7.5 1.25C5.8625 1.25 4.53125 2.58125 4.53125 4.21875C4.53125 5.825 5.7875 7.125 7.425 7.18125C7.475 7.175 7.525 7.175 7.5625 7.18125C7.575 7.18125 7.58125 7.18125 7.59375 7.18125C7.6 7.18125 7.6 7.18125 7.60625 7.18125C9.20625 7.125 10.4625 5.825 10.4688 4.21875C10.4688 2.58125 9.1375 1.25 7.5 1.25Z" fill="white"/>
<path d="M10.6746 8.84374C8.93086 7.68124 6.08711 7.68124 4.33086 8.84374C3.53711 9.37499 3.09961 10.0937 3.09961 10.8625C3.09961 11.6312 3.53711 12.3437 4.32461 12.8687C5.19961 13.4562 6.34961 13.75 7.49961 13.75C8.64961 13.75 9.79961 13.4562 10.6746 12.8687C11.4621 12.3375 11.8996 11.625 11.8996 10.85C11.8934 10.0812 11.4621 9.36874 10.6746 8.84374Z" fill="white"/>
</svg>
