<svg width="24" height="24" viewBox="0 0 24 24" fill="none" xmlns="http://www.w3.org/2000/svg">
<path d="M9.16933 12.7047L13.4093 16.9447C13.5023 17.0384 13.6129 17.1128 13.7348 17.1636C13.8566 17.2143 13.9873 17.2405 14.1193 17.2405C14.2513 17.2405 14.3821 17.2143 14.5039 17.1636C14.6258 17.1128 14.7364 17.0384 14.8293 16.9447C15.0156 16.7573 15.1201 16.5039 15.1201 16.2397C15.1201 15.9755 15.0156 15.722 14.8293 15.5347L11.2893 11.9947L14.8293 8.45468C15.0156 8.26732 15.1201 8.01387 15.1201 7.74968C15.1201 7.48549 15.0156 7.23204 14.8293 7.04468C14.7359 6.952 14.6251 6.87867 14.5032 6.82891C14.3814 6.77914 14.2509 6.75392 14.1193 6.75468C13.9877 6.75392 13.8573 6.77914 13.7354 6.82891C13.6136 6.87867 13.5028 6.952 13.4093 7.04468L9.16933 11.2847C9.07561 11.3776 9.00121 11.4882 8.95044 11.6101C8.89967 11.732 8.87354 11.8627 8.87354 11.9947C8.87354 12.1267 8.89967 12.2574 8.95044 12.3793C9.00121 12.5011 9.07561 12.6117 9.16933 12.7047Z" fill="white"/>
</svg>
