<svg width="20" height="20" viewBox="0 0 20 20" fill="none" xmlns="http://www.w3.org/2000/svg">
<path d="M13.3333 1.66669H6.66667C3.75 1.66669 2.5 3.33335 2.5 5.83335V14.1667C2.5 16.6667 3.75 18.3334 6.66667 18.3334H13.3333C16.25 18.3334 17.5 16.6667 17.5 14.1667V5.83335C17.5 3.33335 16.25 1.66669 13.3333 1.66669ZM6.66667 10.2084H10C10.3417 10.2084 10.625 10.4917 10.625 10.8334C10.625 11.175 10.3417 11.4584 10 11.4584H6.66667C6.325 11.4584 6.04167 11.175 6.04167 10.8334C6.04167 10.4917 6.325 10.2084 6.66667 10.2084ZM13.3333 14.7917H6.66667C6.325 14.7917 6.04167 14.5084 6.04167 14.1667C6.04167 13.825 6.325 13.5417 6.66667 13.5417H13.3333C13.675 13.5417 13.9583 13.825 13.9583 14.1667C13.9583 14.5084 13.675 14.7917 13.3333 14.7917ZM15.4167 7.70835H13.75C12.4833 7.70835 11.4583 6.68335 11.4583 5.41669V3.75002C11.4583 3.40835 11.7417 3.12502 12.0833 3.12502C12.425 3.12502 12.7083 3.40835 12.7083 3.75002V5.41669C12.7083 5.99169 13.175 6.45835 13.75 6.45835H15.4167C15.7583 6.45835 16.0417 6.74169 16.0417 7.08335C16.0417 7.42502 15.7583 7.70835 15.4167 7.70835Z" fill="white" fill-opacity="0.2"/>
</svg>
