<svg width="20" height="20" viewBox="0 0 20 20" fill="none" xmlns="http://www.w3.org/2000/svg">
<path fill-rule="evenodd" clip-rule="evenodd" d="M3.3805 2.18971C3.71538 1.85482 4.1696 1.66669 4.64319 1.66669H16.5479C17.0215 1.66669 17.4758 1.85482 17.8107 2.18971C18.1456 2.5246 18.3337 2.97879 18.3337 3.4524V15.3572C18.3337 15.8307 18.1456 16.285 17.8107 16.6199C17.4758 16.9548 17.0215 17.1429 16.5479 17.1429H7.09742L2.40661 18.3156C2.19584 18.3682 1.97311 18.3019 1.8255 18.1425C1.67789 17.9831 1.62885 17.756 1.69755 17.5499L2.85748 14.0701V3.4524C2.85748 2.97881 3.04562 2.5246 3.3805 2.18971ZM10.1575 5.98708C10.3766 5.89637 10.6176 5.87263 10.8501 5.91888C11.0826 5.96513 11.2961 6.07928 11.4638 6.2469C11.6314 6.41453 11.7456 6.6281 11.7918 6.86062C11.8381 7.09312 11.8143 7.33412 11.7236 7.55314C11.6329 7.77215 11.4792 7.95935 11.2821 8.09106C11.085 8.22276 10.8533 8.29306 10.6162 8.29306C10.2053 8.29306 9.87218 8.62618 9.87218 9.0371V10.3322C9.87218 10.7431 10.2053 11.0762 10.6162 11.0762C11.0272 11.0762 11.3603 10.7431 11.3603 10.3322V9.67607C11.6248 9.59983 11.8775 9.48297 12.1089 9.32835C12.5507 9.03314 12.8951 8.61353 13.0984 8.1226C13.3018 7.63167 13.355 7.09147 13.2513 6.57029C13.1476 6.04913 12.8918 5.5704 12.516 5.19466C12.1403 4.81893 11.6615 4.56304 11.1404 4.45938C10.6192 4.3557 10.079 4.40891 9.58808 4.61226C9.09714 4.81562 8.67754 5.15997 8.38231 5.60179C8.0871 6.04363 7.92953 6.56307 7.92953 7.09445C7.92953 7.50538 8.26265 7.8385 8.67358 7.8385C9.0845 7.8385 9.41762 7.50538 9.41762 7.09445C9.41762 6.85739 9.48792 6.62565 9.61962 6.42854C9.75133 6.23142 9.93853 6.07781 10.1575 5.98708ZM10.6163 14.3139C10.0276 14.3126 9.55088 13.8351 9.55088 13.2462C9.55088 12.6564 10.029 12.1784 10.6187 12.1784L10.6211 12.1784C11.2097 12.1797 11.6865 12.6572 11.6865 13.2462C11.6865 13.836 11.2084 14.3139 10.6187 14.3139H10.6163Z" fill="white" fill-opacity="0.2"/>
</svg>
